<?xml version="1.0" encoding="UTF-8" standalone="no"?>
<?xml-stylesheet href="doxygen.css" type="text/css"?>
<!DOCTYPE svg PUBLIC "-//W3C//DTD SVG 1.1//EN"
 "http://www.w3.org/Graphics/SVG/1.1/DTD/svg11.dtd">
<!-- Generated by graphviz version 2.38.0 (20140413.2041)
 -->
<!-- Title: G Pages: 1 -->
<svg width="837pt" height="890pt"
 viewBox="0.00 0.00 836.50 890.00" xmlns="http://www.w3.org/2000/svg" xmlns:xlink="http://www.w3.org/1999/xlink">
<g id="graph0" class="graph" transform="scale(1 1) rotate(0) translate(4 886)">
<title>G</title>
<polygon fill="white" stroke="none" points="-4,4 -4,-886 832.5,-886 832.5,4 -4,4"/>
<!-- node20 -->
<g id="node1" class="node"><title>node20</title>
<path fill="none" stroke="black" d="M694,-882C694,-882 506,-882 506,-882 500,-882 494,-876 494,-870 494,-870 494,-858 494,-858 494,-852 500,-846 506,-846 506,-846 694,-846 694,-846 700,-846 706,-852 706,-858 706,-858 706,-870 706,-870 706,-876 700,-882 694,-882"/>
<polygon fill="white" stroke="none" points="502,-856 502,-871 698,-871 698,-856 502,-856"/>
<text text-anchor="start" x="502" y="-859.8" font-family="Times New Roman,serif" font-size="14.00"> OverflowCNT:process( clk,reset) </text>
</g>
<!-- node1 -->
<g id="node2" class="node"><title>node1</title>
<polygon fill="#c1b2ff" stroke="#c1b2ff" points="600,-809 466.944,-791 600,-773 733.056,-791 600,-809"/>
<text text-anchor="middle" x="600" y="-787.3" font-family="Times New Roman,serif" font-size="14.00"> if &#160;&#160;&#160;BIT_FID/= 0 then</text>
</g>
<!-- node20&#45;&gt;node1 -->
<g id="edge1" class="edge"><title>node20&#45;&gt;node1:n</title>
<path fill="none" stroke="green" d="M600,-845.975C600,-838.169 600,-828.561 600,-819.106"/>
<polygon fill="green" stroke="green" points="603.5,-819 600,-809 596.5,-819 603.5,-819"/>
</g>
<!-- node2 -->
<g id="node3" class="node"><title>node2</title>
<polygon fill="#c1b2ff" stroke="#c1b2ff" points="490,-722 370.519,-704 490,-686 609.481,-704 490,-722"/>
<text text-anchor="middle" x="490" y="-700.3" font-family="Times New Roman,serif" font-size="14.00"> if ( &#160;&#160;reset= &#39;1&#39;) then</text>
</g>
<!-- node1&#45;&gt;node2 -->
<g id="edge2" class="edge"><title>node1:s&#45;&gt;node2:n</title>
<path fill="none" stroke="red" d="M600,-773C600,-723.112 505.722,-768.07 491.728,-732.26"/>
<polygon fill="red" stroke="red" points="495.112,-731.28 490,-722 488.209,-732.442 495.112,-731.28"/>
<text text-anchor="middle" x="602.5" y="-743.8" font-family="Times New Roman,serif" font-size="14.00">yes</text>
</g>
<!-- node17 -->
<g id="node12" class="node"><title>node17</title>
<polygon fill="lightcyan" stroke="none" points="599,-625 599,-661 822,-661 822,-625 599,-625"/>
<polygon fill="none" stroke="black" points="599,-625 599,-661 822,-661 822,-625 599,-625"/>
<text text-anchor="start" x="602" y="-646.8" font-family="Times New Roman,serif" font-size="14.00"> beltbus_tvalid&lt;= &#160;&#160;timestamp_tvalid</text>
<text text-anchor="start" x="602" y="-631.8" font-family="Times New Roman,serif" font-size="14.00">beltbus_tdata&lt;= &#160;&#160;timestamp_tdata &#160;&#160;&#160;. </text>
</g>
<!-- node1&#45;&gt;node17 -->
<g id="edge3" class="edge"><title>node1:s&#45;&gt;node17</title>
<path fill="none" stroke="black" d="M600,-773C600,-762.296 608.985,-763.085 616,-755 638.846,-728.669 664.387,-698.459 683.072,-676.209"/>
<polygon fill="black" stroke="black" points="685.883,-678.305 689.629,-668.394 680.52,-673.806 685.883,-678.305"/>
<text text-anchor="middle" x="636.5" y="-743.8" font-family="Times New Roman,serif" font-size="14.00">no</text>
</g>
<!-- node3 -->
<g id="node4" class="node"><title>node3</title>
<polygon fill="lightcyan" stroke="none" points="7,-503 7,-539 235,-539 235,-503 7,-503"/>
<polygon fill="none" stroke="black" points="7,-503 7,-539 235,-539 235,-503 7,-503"/>
<text text-anchor="start" x="10" y="-524.8" font-family="Times New Roman,serif" font-size="14.00"> beltbus_tvalid&lt;= &#39;0&#39;</text>
<text text-anchor="start" x="10" y="-509.8" font-family="Times New Roman,serif" font-size="14.00">CoarseOverflow_cnt&lt;=( others =&gt; &#39;0&#39;) </text>
</g>
<!-- node2&#45;&gt;node3 -->
<g id="edge4" class="edge"><title>node2:s&#45;&gt;node3</title>
<path fill="none" stroke="red" d="M490,-686C490,-677.834 294.421,-594.634 188.037,-549.982"/>
<polygon fill="red" stroke="red" points="189.232,-546.688 178.656,-546.048 186.524,-553.143 189.232,-546.688"/>
<text text-anchor="middle" x="466.5" y="-639.3" font-family="Times New Roman,serif" font-size="14.00">yes</text>
</g>
<!-- node5 -->
<g id="node5" class="node"><title>node5</title>
<polygon fill="#c1b2ff" stroke="#c1b2ff" points="490,-600 322.926,-582 490,-564 657.074,-582 490,-600"/>
<text text-anchor="middle" x="490" y="-578.3" font-family="Times New Roman,serif" font-size="14.00"> elsif &#160;&#160;&#160;rising_edge(clk &#160;) then</text>
</g>
<!-- node2&#45;&gt;node5 -->
<g id="edge5" class="edge"><title>node2:s&#45;&gt;node5</title>
<path fill="none" stroke="black" d="M490,-686C490,-660.265 490,-630.914 490,-610.145"/>
<polygon fill="black" stroke="black" points="493.5,-610.131 490,-600.131 486.5,-610.131 493.5,-610.131"/>
<text text-anchor="middle" x="497.5" y="-639.3" font-family="Times New Roman,serif" font-size="14.00">no</text>
</g>
<!-- node21 -->
<g id="node13" class="node"><title>node21</title>
<path fill="none" stroke="black" d="M705,-36C705,-36 633,-36 633,-36 627,-36 621,-30 621,-24 621,-24 621,-12 621,-12 621,-6 627,-0 633,-0 633,-0 705,-0 705,-0 711,-0 717,-6 717,-12 717,-12 717,-24 717,-24 717,-30 711,-36 705,-36"/>
<polygon fill="white" stroke="none" points="629,-10 629,-25 709,-25 709,-10 629,-10"/>
<text text-anchor="start" x="629" y="-13.8" font-family="Times New Roman,serif" font-size="14.00"> end process &#160;</text>
</g>
<!-- node3&#45;&gt;node21 -->
<g id="edge6" class="edge"><title>node3&#45;&gt;node21</title>
<path fill="none" stroke="green" d="M96.4028,-495.909C80.5949,-477.79 63,-451.456 63,-424 63,-424 63,-424 63,-212 63,-179.837 56.1975,-165.53 77,-141 111.385,-100.454 140.673,-121.153 189,-99"/>
<path fill="none" stroke="green" d="M189,-97C201.285,-91.1547 195.871,-79.1625 208,-73 253.701,-49.7803 637.379,-95.3465 669,-55"/>
<path fill="none" stroke="green" d="M669,-54C670.827,-51.6685 671.959,-48.9557 672.593,-46.0915"/>
<polygon fill="green" stroke="green" points="676.088,-46.2752 673.123,-36.1037 669.098,-45.9042 676.088,-46.2752"/>
</g>
<!-- node6 -->
<g id="node6" class="node"><title>node6</title>
<polygon fill="lightcyan" stroke="none" points="365,-449 365,-470 579,-470 579,-449 365,-449"/>
<polygon fill="none" stroke="black" points="365,-449 365,-470 579,-470 579,-449 365,-449"/>
<text text-anchor="start" x="368" y="-455.8" font-family="Times New Roman,serif" font-size="14.00"> beltbus_tvalid&lt;= &#160;&#160;timestamp_tvalid </text>
</g>
<!-- node5&#45;&gt;node6 -->
<g id="edge7" class="edge"><title>node5&#45;&gt;node6</title>
<path fill="none" stroke="red" d="M487.459,-564.061C484.501,-544.341 479.575,-511.502 476.079,-488.197"/>
<polygon fill="red" stroke="red" points="479.531,-487.611 474.586,-478.241 472.608,-488.65 479.531,-487.611"/>
<text text-anchor="middle" x="494.5" y="-517.3" font-family="Times New Roman,serif" font-size="14.00">yes</text>
</g>
<!-- node5&#45;&gt;node21 -->
<g id="edge8" class="edge"><title>node5&#45;&gt;node21</title>
<path fill="none" stroke="black" d="M542.255,-569.556C595.09,-554.544 669,-522.545 669,-461 669,-461 669,-461 669,-342.5 669,-314.901 668.613,-305.553 683,-282 691.796,-267.601 708.161,-273.93 712,-257.5"/>
<path fill="none" stroke="black" d="M712,-255.5C718.799,-213.604 712.201,-202.444 712,-160"/>
<text text-anchor="middle" x="690.5" y="-296.3" font-family="Times New Roman,serif" font-size="14.00">no</text>
</g>
<!-- node7 -->
<g id="node7" class="node"><title>node7</title>
<polygon fill="#c1b2ff" stroke="#c1b2ff" points="467,-405 293.058,-387 467,-369 640.942,-387 467,-405"/>
<text text-anchor="middle" x="467" y="-383.3" font-family="Times New Roman,serif" font-size="14.00"> if &#160;&#160;&#160;timestamp_tvalid= &#39;1&#39; then</text>
</g>
<!-- node6&#45;&gt;node7 -->
<g id="edge9" class="edge"><title>node6&#45;&gt;node7:n</title>
<path fill="none" stroke="green" d="M469.559,-441.528C468.636,-433.86 467.704,-424.513 467.262,-415.28"/>
<polygon fill="green" stroke="green" points="470.754,-414.907 467,-405 463.756,-415.086 470.754,-414.907"/>
</g>
<!-- node8 -->
<g id="node8" class="node"><title>node8</title>
<polygon fill="#c1b2ff" stroke="#c1b2ff" points="411,-318 227.337,-300 411,-282 594.663,-300 411,-318"/>
<text text-anchor="middle" x="411" y="-296.3" font-family="Times New Roman,serif" font-size="14.00"> if &#160;&#160;&#160;fid= &#160;&#160;FID_MEASURE then</text>
</g>
<!-- node7&#45;&gt;node8 -->
<g id="edge10" class="edge"><title>node7:s&#45;&gt;node8:n</title>
<path fill="none" stroke="red" d="M467,-369C467,-339.281 423.356,-348.523 413.127,-327.936"/>
<polygon fill="red" stroke="red" points="416.516,-327.046 411,-318 409.671,-328.511 416.516,-327.046"/>
<text text-anchor="middle" x="466.5" y="-339.8" font-family="Times New Roman,serif" font-size="14.00">yes</text>
</g>
<!-- node7&#45;&gt;node21 -->
<g id="edge11" class="edge"><title>node7:s&#45;&gt;node21</title>
<path fill="none" stroke="black" d="M712,-158C719.632,-118.2 696.214,-109.687 679,-73 675.113,-64.715 663.375,-62.2192 669,-55"/>
<path fill="none" stroke="black" d="M467,-369C467,-336.514 578.702,-338.379 604,-318 654.596,-277.242 644.648,-247.444 683,-195 694.925,-178.694 710.919,-180.172 712,-160"/>
<text text-anchor="middle" x="690.5" y="-209.3" font-family="Times New Roman,serif" font-size="14.00">no</text>
</g>
<!-- node9 -->
<g id="node9" class="node"><title>node9</title>
<polygon fill="lightcyan" stroke="none" points="85,-148 85,-169 293,-169 293,-148 85,-148"/>
<polygon fill="none" stroke="black" points="85,-148 85,-169 293,-169 293,-148 85,-148"/>
<text text-anchor="start" x="88" y="-154.8" font-family="Times New Roman,serif" font-size="14.00"> beltbus_tdata&lt;= &#160;&#160;timestamp_tdata </text>
</g>
<!-- node8&#45;&gt;node9 -->
<g id="edge12" class="edge"><title>node8:s&#45;&gt;node9</title>
<path fill="none" stroke="red" d="M411,-282C411,-258.312 220.468,-248.027 204,-231 192.935,-219.559 189.138,-202.119 188.13,-187.387"/>
<polygon fill="red" stroke="red" points="191.625,-187.153 187.825,-177.263 184.628,-187.364 191.625,-187.153"/>
<text text-anchor="middle" x="379.5" y="-252.8" font-family="Times New Roman,serif" font-size="14.00">yes</text>
</g>
<!-- node10 -->
<g id="node10" class="node"><title>node10</title>
<polygon fill="#c1b2ff" stroke="#c1b2ff" points="423,-231 213.364,-213 423,-195 632.636,-213 423,-231"/>
<text text-anchor="middle" x="423" y="-209.3" font-family="Times New Roman,serif" font-size="14.00"> elsif &#160;&#160;&#160;fid= &#160;&#160;FID_OVERFLOW then</text>
</g>
<!-- node8&#45;&gt;node10 -->
<g id="edge13" class="edge"><title>node8:s&#45;&gt;node10</title>
<path fill="none" stroke="black" d="M411,-282C411,-268.139 413.448,-252.927 416.133,-240.412"/>
<polygon fill="black" stroke="black" points="419.553,-241.154 418.395,-230.623 412.733,-239.578 419.553,-241.154"/>
<text text-anchor="middle" x="422.5" y="-252.8" font-family="Times New Roman,serif" font-size="14.00">no</text>
</g>
<!-- node9&#45;&gt;node21 -->
<g id="edge14" class="edge"><title>node9&#45;&gt;node21</title>
<path fill="none" stroke="green" d="M182.26,-140.785C177.612,-125.849 174.567,-105.616 189,-99"/>
</g>
<!-- node11 -->
<g id="node11" class="node"><title>node11</title>
<polygon fill="lightcyan" stroke="none" points="225,-80 225,-116 626,-116 626,-80 225,-80"/>
<polygon fill="none" stroke="black" points="225,-80 225,-116 626,-116 626,-80 225,-80"/>
<text text-anchor="start" x="228" y="-101.8" font-family="Times New Roman,serif" font-size="14.00"> CoarseOverflow_cnt&lt;= &#160;&#160;CoarseOverflow_cnt+ 1</text>
<text text-anchor="start" x="228" y="-86.8" font-family="Times New Roman,serif" font-size="14.00">beltbus_tdata&lt;= &#160;&#160;fid&amp; &#160;&#160;std_logic_vector( &#160;&#160;CoarseOverflow_cnt+ 1) </text>
</g>
<!-- node10&#45;&gt;node11 -->
<g id="edge15" class="edge"><title>node10&#45;&gt;node11</title>
<path fill="none" stroke="red" d="M423.304,-194.838C423.592,-178.539 424.034,-153.57 424.395,-133.204"/>
<polygon fill="red" stroke="red" points="427.897,-133.105 424.574,-123.044 420.898,-132.981 427.897,-133.105"/>
<text text-anchor="middle" x="434.5" y="-155.3" font-family="Times New Roman,serif" font-size="14.00">yes</text>
</g>
<!-- node10&#45;&gt;node21 -->
<g id="edge16" class="edge"><title>node10&#45;&gt;node21</title>
<path fill="none" stroke="black" d="M485.255,-200.289C533.326,-188.319 598.589,-165.284 641,-123 664.146,-99.9236 648.953,-80.8137 669,-55"/>
<text text-anchor="middle" x="667.5" y="-94.3" font-family="Times New Roman,serif" font-size="14.00">no</text>
</g>
<!-- node11&#45;&gt;node21 -->
<g id="edge17" class="edge"><title>node11&#45;&gt;node21</title>
<path fill="none" stroke="green" d="M632.679,-75.4233C649.482,-70.0576 662.508,-63.3599 669,-55"/>
</g>
<!-- node17&#45;&gt;node21 -->
<g id="edge18" class="edge"><title>node17&#45;&gt;node21</title>
<path fill="none" stroke="green" d="M710.644,-617.64C711.228,-593.397 712,-555.13 712,-522 712,-522 712,-522 712,-342.5 712,-304.722 704.669,-294.56 712,-257.5"/>
</g>
</g>
</svg>
